<svg aria-hidden="true" style="position: absolute; width: 0; height: 0; overflow: hidden;" version="1.1" xmlns="http://www.w3.org/2000/svg" xmlns:xlink="http://www.w3.org/1999/xlink">
<defs>
<symbol id="account" viewBox="0 0 32 32">
<path  d="M21.821 17.135c2.238-1.773 3.661-4.49 3.661-7.54 0-5.299-4.296-9.595-9.595-9.595s-9.595 4.296-9.595 9.595c0 3.050 1.423 5.767 3.641 7.525l0.020 0.015c-5.395 2.203-9.265 7.119-9.938 13.006l-0.007 0.074c-0.006 0.053-0.010 0.114-0.010 0.176 0 0.889 0.72 1.609 1.609 1.609 0.827 0 1.508-0.623 1.599-1.426l0.001-0.007c0.746-6.421 6.152-11.359 12.713-11.359s11.967 4.938 12.707 11.299l0.006 0.060c0.092 0.805 0.769 1.424 1.59 1.424 0.003 0 0.007 0 0.010-0h0.174c0.801-0.096 1.416-0.771 1.416-1.589 0-0.060-0.003-0.119-0.010-0.178l0.001 0.007c-0.684-5.977-4.575-10.903-9.886-13.058l-0.107-0.038zM15.888 16c-3.533 0-6.397-2.864-6.397-6.397s2.864-6.397 6.397-6.397v0c3.533 0 6.397 2.864 6.397 6.397s-2.864 6.397-6.397 6.397v0z"></path>
</symbol>
<symbol id="buy" viewBox="0 0 32 32">
<path  d="M30.353 22.373h-22.365c-0.883 0-1.598-0.715-1.598-1.598s0.715-1.598 1.598-1.598v0h16.679c2.233-0 4.109-1.527 4.641-3.593l0.007-0.033 2.636-10.373c0.031-0.118 0.049-0.253 0.049-0.392 0-0.372-0.127-0.713-0.34-0.985l0.003 0.003c-0.295-0.372-0.747-0.609-1.255-0.609-0.019 0-0.038 0-0.057 0.001l0.003-0h-22.749c-0.677-1.873-2.436-3.189-4.505-3.196h-1.502c-0.883 0-1.598 0.715-1.598 1.598s0.715 1.598 1.598 1.598v0h1.501c0.014-0 0.031-0.001 0.048-0.001 0.747 0 1.374 0.512 1.549 1.204l0.002 0.011 0.095 0.767 2.764 10.804c-2.555 0.118-4.581 2.218-4.581 4.791 0 0.077 0.002 0.153 0.005 0.229l-0-0.011c0.119 2.556 2.22 4.583 4.795 4.583 0.075 0 0.149-0.002 0.223-0.005l-0.011 0h0.287c-0.182 0.486-0.287 1.048-0.287 1.635 0 2.648 2.146 4.795 4.794 4.796h0c0.001 0 0.002 0 0.003 0 2.646 0 4.791-2.145 4.791-4.791 0-0.589-0.106-1.152-0.3-1.673l0.011 0.033h3.771c-0.182 0.486-0.287 1.048-0.287 1.634 0 1.839 1.035 3.437 2.554 4.242l0.026 0.013c0.643 0.342 1.406 0.543 2.215 0.543 2.646 0 4.791-2.145 4.791-4.791 0-0.589-0.106-1.153-0.301-1.675l0.011 0.033h0.288c0.883 0 1.598-0.715 1.598-1.598s-0.715-1.598-1.598-1.598v0zM28.308 6.392l-2.093 8.375c-0.178 0.703-0.805 1.214-1.552 1.214-0.016 0-0.031-0-0.047-0.001l0.002 0h-13.787l-2.397-9.587h19.873zM12.78 28.765c-0.014 0-0.030 0.001-0.046 0.001-0.882 0-1.597-0.715-1.597-1.597s0.715-1.597 1.597-1.597c0.016 0 0.032 0 0.049 0.001l-0.002-0c0.882 0 1.597 0.715 1.597 1.597s-0.715 1.597-1.597 1.597v0zM25.561 28.765c-0.014 0-0.030 0.001-0.046 0.001-0.882 0-1.597-0.715-1.597-1.597s0.715-1.597 1.597-1.597c0.016 0 0.032 0 0.049 0.001l-0.002-0c0.882 0 1.597 0.715 1.597 1.597s-0.715 1.597-1.597 1.597v0z"></path>
</symbol>
<symbol id="facebook" viewBox="0 0 34 32">
<path  d="M30.262 0h-28.48c-0.972 0-1.76 0.788-1.76 1.76v0 28.48c0 0.972 0.788 1.76 1.76 1.76v0h15.328v-12.4h-4.16v-4.8h4.16v-3.6c-0.019-0.177-0.030-0.383-0.030-0.591 0-3.216 2.607-5.824 5.824-5.824 0.146 0 0.29 0.005 0.433 0.016l-0.019-0.001c0.059-0 0.129-0.001 0.199-0.001 1.243 0 2.47 0.070 3.676 0.206l-0.148-0.014v4.32h-2.544c-2.016 0-2.4 0.96-2.4 2.352v3.088h4.8l-0.624 4.8h-4.176v12.448h8.16c0.972-0.001 1.759-0.788 1.76-1.76v-28.48c0-0.972-0.788-1.76-1.76-1.76v0z"></path>
</symbol>
<symbol id="instagram" viewBox="0 0 34 32">
<path d="M16.022 12.032c-2.191 0-3.968 1.777-3.968 3.968s1.777 3.968 3.968 3.968v0c2.191 0 3.968-1.777 3.968-3.968s-1.777-3.968-3.968-3.968v0zM31.91 8.112c-0.009-1.302-0.255-2.543-0.696-3.687l0.024 0.071c-0.664-1.716-1.996-3.048-3.668-3.697l-0.044-0.015c-1.073-0.417-2.314-0.663-3.612-0.672l-0.004-0c-2.064-0.112-2.672-0.112-7.888-0.112s-5.824 0-7.888 0.112c-1.302 0.009-2.543 0.255-3.687 0.696l0.071-0.024c-1.716 0.664-3.048 1.996-3.697 3.668l-0.015 0.044c-0.417 1.073-0.663 2.314-0.672 3.612l-0 0.004c-0.112 2.064-0.112 2.672-0.112 7.888s0 5.824 0.112 7.888c0.019 1.309 0.264 2.554 0.697 3.708l-0.025-0.076c0.32 0.842 0.816 1.606 1.456 2.24 0.637 0.643 1.408 1.141 2.256 1.456 1.073 0.417 2.314 0.663 3.612 0.672l0.004 0c2.064 0.112 2.672 0.112 7.888 0.112s5.824 0 7.888-0.112c1.302-0.009 2.543-0.255 3.687-0.696l-0.071 0.024c0.882-0.333 1.635-0.829 2.256-1.456l0-0c0.64-0.634 1.136-1.398 1.456-2.24 0.417-1.078 0.662-2.325 0.672-3.628l0-0.004c0.112-2.064 0.112-2.672 0.112-7.888s0-5.824-0.112-7.888zM27.846 20.912c-0.056 1.050-0.28 2.032-0.646 2.942l0.022-0.062c-0.641 1.555-1.853 2.767-3.367 3.393l-0.041 0.015c-0.857 0.326-1.848 0.528-2.882 0.56l-0.014 0h-9.792c-1.048-0.032-2.039-0.234-2.959-0.581l0.063 0.021c-0.823-0.311-1.523-0.78-2.094-1.374l-0.002-0.002c-0.565-0.559-1.011-1.237-1.299-1.993l-0.013-0.039c-0.328-0.859-0.526-1.852-0.544-2.888l-0-0.008v-9.792c0.018-1.044 0.216-2.037 0.564-2.956l-0.020 0.060c0.311-0.823 0.78-1.523 1.374-2.094l0.002-0.002c0.576-0.576 1.269-1.024 2.032-1.312 0.857-0.326 1.848-0.528 2.882-0.56l0.014-0h9.792c1.048 0.032 2.039 0.234 2.959 0.581l-0.063-0.021c0.823 0.311 1.523 0.78 2.094 1.374l0.002 0.002c0.579 0.574 1.027 1.267 1.312 2.032 0.326 0.857 0.528 1.848 0.56 2.882l0 0.014v4.896c0 3.296 0.112 3.632 0.064 4.896v0.016zM25.286 9.008c-0.394-1.049-1.207-1.862-2.23-2.247l-0.026-0.009c-0.625-0.224-1.345-0.353-2.096-0.353-0.039 0-0.079 0-0.118 0.001l0.006-0h-9.6c-0.796 0.008-1.553 0.16-2.252 0.431l0.044-0.015c-1.035 0.377-1.843 1.16-2.247 2.151l-0.009 0.025c-0.213 0.632-0.337 1.361-0.337 2.118 0 0.032 0 0.063 0.001 0.095l-0-0.005v9.6c0.016 0.754 0.155 1.501 0.416 2.208 0.394 1.049 1.207 1.862 2.23 2.247l0.026 0.009c0.63 0.239 1.357 0.389 2.116 0.416l0.012 0h9.6c0.796-0.008 1.553-0.16 2.252-0.431l-0.044 0.015c1.049-0.395 1.861-1.207 2.247-2.23l0.009-0.026c0.267-0.706 0.408-1.453 0.416-2.208v-9.6c0-0.755-0.141-1.504-0.416-2.208v0.016zM16.022 22.112c0 0 0 0-0 0-3.367 0-6.096-2.729-6.096-6.096 0-0.006 0-0.011 0-0.017v0.001c0-3.376 2.736-6.112 6.112-6.112s6.112 2.736 6.112 6.112c0 3.376-2.736 6.112-6.112 6.112-0.006 0-0.011 0-0.017-0h0.001zM22.422 11.088c-0.727-0.079-1.288-0.69-1.288-1.432s0.561-1.353 1.282-1.431l0.006-0.001c0.727 0.079 1.288 0.69 1.288 1.432s-0.561 1.353-1.282 1.431l-0.006 0.001z"></path>
</symbol>
<symbol id="logo-svg" viewBox="0 0 205 32">
<path  d="M39.872 17.219c0-6.576 4.325-10.391 9.295-10.391 1.106 0.008 2.2 0.239 3.217 0.68 1.055 0.465 1.952 1.102 2.698 1.885l0.003 0.003-2.34 2.88c-0.864-0.931-2.078-1.526-3.432-1.577l-0.009-0c-2.731 0-4.834 2.394-4.834 6.42s1.885 6.421 4.762 6.421c0.773-0.013 1.501-0.196 2.152-0.512l-0.031 0.013c0.683-0.33 1.259-0.78 1.723-1.328l0.006-0.008 2.349 2.816c-0.769 0.92-1.723 1.659-2.808 2.166l-0.050 0.021c-1.102 0.505-2.304 0.754-3.515 0.73-5.016-0.046-9.185-3.54-9.185-10.217zM56.586 19.476c0-4.888 3.469-7.915 7.064-7.915 4.27 0 6.373 3.128 6.373 7.246 0.002 0.665-0.059 1.328-0.182 1.982h-9.003c0.13 0.959 0.613 1.786 1.311 2.361l0.006 0.005c0.619 0.51 1.421 0.819 2.294 0.819 0.097 0 0.193-0.004 0.288-0.011l-0.013 0.001c1.207-0.024 2.325-0.391 3.264-1.006l-0.024 0.015 1.466 2.696c-1.487 1.038-3.324 1.671-5.307 1.706l-0.009 0c-4.27 0.018-7.528-2.898-7.528-7.897zM66.245 17.825c0-1.66-0.72-2.852-2.494-2.852-1.402 0-2.613 0.917-2.914 2.852h5.408zM71.843 11.928h3.642l0.3 1.944h0.11c0.603-0.669 1.327-1.216 2.14-1.607l0.041-0.018c0.77-0.373 1.67-0.608 2.621-0.649l0.014-0.001c3.258 0 4.651 2.32 4.651 6.090v9.337h-4.442v-8.805c0-2.164-0.574-2.852-1.821-2.852-1.12 0-1.82 0.532-2.73 1.467v10.19h-4.525v-15.096zM89.122 21.53v-6.090h-2.049v-3.338l2.294-0.174 0.518-4.008h3.642v4.008h3.642v3.512h-3.642v6.045c0 1.706 0.774 2.394 1.939 2.394 0.518-0.020 1.006-0.122 1.46-0.295l-0.032 0.011 0.702 3.246c-0.994 0.348-2.139 0.549-3.331 0.55h-0.001c-3.678 0-5.143-2.357-5.143-5.861zM99.482 11.928h3.641l0.318 2.642h0.11c1.093-2.018 2.731-3.008 4.251-3.008 0.072-0.004 0.155-0.007 0.24-0.007 0.57 0 1.114 0.114 1.609 0.319l-0.028-0.010-0.783 3.842c-0.483-0.143-1.040-0.229-1.615-0.238l-0.005-0c-1.129 0-2.503 0.734-3.305 2.752v8.75h-4.433v-15.042zM109.969 22.833c0-3.182 2.503-4.898 8.43-5.503 0.002-0.035 0.003-0.076 0.003-0.117 0-0.931-0.608-1.72-1.449-1.99l-0.015-0.004c-0.183-0.059-0.394-0.093-0.612-0.093-0.104 0-0.206 0.008-0.305 0.023l0.011-0.001c-1.47 0.111-2.808 0.596-3.944 1.359l0.029-0.018-1.584-2.935c1.798-1.196 3.994-1.93 6.357-1.99l0.015-0c3.832 0 5.954 2.202 5.954 6.833v8.63h-3.642l-0.318-1.55h-0.11c-1.123 1.123-2.651 1.841-4.347 1.916l-0.014 0c-0.045 0.002-0.099 0.003-0.152 0.003-1.204 0-2.291-0.496-3.070-1.295l-0.001-0.001c-0.768-0.785-1.242-1.861-1.242-3.048 0-0.077 0.002-0.153 0.006-0.228l-0 0.011zM118.398 22.641v-2.642c-3.15 0.43-4.178 1.338-4.178 2.476 0 0.972 0.655 1.449 1.711 1.449 0.505-0.027 0.973-0.161 1.389-0.382l-0.018 0.009c0.435-0.23 0.801-0.536 1.091-0.904l0.005-0.007zM125.964 22.328v-16.618h4.442v16.802c0 0.917 0.437 1.266 0.801 1.266 0.184 0.006 0.369-0.015 0.546-0.064l0.528 3.302c-0.607 0.24-1.31 0.379-2.045 0.379-0.065 0-0.13-0.001-0.195-0.003l0.009 0c-3.041 0-4.087-2.008-4.087-5.063zM136.059 6.314h3.15l3.942 11.070c0.491 1.412 0.965 2.87 1.456 4.31h0.128c0.491-1.44 0.91-2.898 1.42-4.31l3.896-11.070h3.15v20.71h-2.43v-11.4c0-1.834 0.2-4.293 0.328-6.127h-0.128l-1.63 4.724-3.869 10.712h-1.73l-3.887-10.712-1.63-4.724h-0.127c0.127 1.834 0.328 4.32 0.328 6.127v11.4h-2.367v-20.71zM157.125 21.402v-9.713h2.577v9.382c0 2.852 0.865 4.072 2.876 4.072 1.557 0 2.631-0.77 4.070-2.577v-10.878h2.576v15.334h-2.121l-0.218-2.403h-0.091c-1.411 1.67-2.931 2.752-5.016 2.752-3.232 0.027-4.652-2.054-4.652-5.97zM172.053 25.272l1.266-1.706c1.179 1.099 2.753 1.789 4.488 1.834l0.009 0c1.994 0 2.986-1.073 2.986-2.384 0-1.578-1.821-2.275-3.478-2.908-2.13-0.779-4.552-1.834-4.552-4.43 0-2.449 1.949-4.347 5.244-4.347 1.802 0.029 3.45 0.671 4.748 1.726l-0.014-0.011-1.229 1.67c-0.934-0.801-2.142-1.308-3.466-1.366l-0.012-0c-1.912 0-2.794 1.027-2.794 2.201 0 1.458 1.647 2.009 3.377 2.66 2.194 0.834 4.643 1.734 4.643 4.65 0 2.485-1.966 4.586-5.554 4.586-2.172-0.062-4.143-0.873-5.675-2.184l0.012 0.010zM185.763 6.856c0.088-0.41 0.312-0.777 0.636-1.040 0.31-0.254 0.71-0.408 1.146-0.408 0.872 0 1.601 0.616 1.775 1.436l0.002 0.012c-0.092 0.422-0.319 0.781-0.633 1.037l-0.003 0.003c-0.309 0.253-0.708 0.406-1.144 0.406s-0.834-0.153-1.147-0.409l0.003 0.003c-0.317-0.259-0.544-0.618-0.634-1.028l-0.002-0.012zM186.237 11.69h2.567v15.334h-2.567v-15.336zM192.227 19.375c0-5.118 3.432-8.062 7.283-8.062 1.736 0.004 3.308 0.703 4.452 1.835l-0.001-0.001-1.329 1.642c-0.764-0.801-1.825-1.313-3.006-1.357l-0.008-0c-2.731 0-4.779 2.394-4.779 5.906s1.912 5.861 4.706 5.861c1.399-0.041 2.661-0.599 3.608-1.488l-0.003 0.003 1.11 1.733c-1.289 1.194-3.014 1.932-4.911 1.954l-0.004 0c-4.078 0-7.119-2.944-7.119-8.025zM0 16.037c-0 0.015-0 0.032-0 0.049 0 4.077 1.526 7.798 4.038 10.623l-0.014-0.016c2.525 2.84 6.036 4.755 9.991 5.206l0.072 0.007c3.878 0.427 7.776-0.606 10.943-2.901 3.109-2.276 5.341-5.59 6.192-9.423l0.020-0.106h-4.186c-0.15 0.031-0.28 0.102-0.383 0.202l0-0c-0.297 0.304-0.567 0.637-0.804 0.993l-0.016 0.025c-0.125 0.216-0.355 0.36-0.619 0.36-0.019 0-0.038-0.001-0.057-0.002l0.003 0c-0.328 0-0.664 0-1.019 0.046v1.376c0.254 0.082 0.528 0.156 0.792 0.256 0.233 0.087 0.396 0.307 0.396 0.566 0 0.047-0.005 0.092-0.015 0.136l0.001-0.004c0 0.339 0 0.688-0.364 0.853-0.404 0.169-0.873 0.268-1.366 0.268s-0.962-0.098-1.39-0.277l0.024 0.009c-0.226-0.084-0.384-0.298-0.384-0.549 0-0.039 0.004-0.078 0.011-0.115l-0.001 0.004c0-0.349-0.073-0.734 0.364-0.917 0.273-0.102 0.546-0.184 0.829-0.275v-1.284l-4.498 0.21v1.128l0.118 0.056c0.984 0.293 0.829 0.476 0.792 1.366 0 0.156-0.254 0.367-0.437 0.45-0.643 0.256-1.36 0.256-2.002 0-0.546-0.184-0.464-0.632-0.483-1.054-0.001-0.011-0.001-0.025-0.001-0.038 0-0.152 0.052-0.292 0.139-0.403l-0.001 0.001c0.095-0.122 0.232-0.209 0.388-0.239l0.004-0.001c0.13-0.053 0.264-0.098 0.4-0.138v-1.1l-4.378 0.202v0.917l0.291 0.083c1.010 0.266 0.856 0.495 0.819 1.293 0 0.156-0.2 0.358-0.355 0.431-0.387 0.169-0.837 0.268-1.311 0.268s-0.924-0.099-1.332-0.276l0.022 0.008c-0.446-0.174-0.355-0.569-0.373-0.918-0.004-0.024-0.006-0.053-0.006-0.081 0-0.26 0.168-0.48 0.402-0.559l0.004-0.001c0.246-0.101 0.492-0.165 0.756-0.248v-0.826l-5.298 0.258v-11.731l5.298 0.257v-0.825c-0.264-0.083-0.51-0.147-0.756-0.248-0.238-0.078-0.406-0.297-0.406-0.556 0-0.030 0.002-0.060 0.007-0.089l-0 0.003c0-0.358-0.074-0.752 0.373-0.917 0.386-0.171 0.837-0.271 1.311-0.271s0.925 0.1 1.332 0.28l-0.021-0.008c0.155 0.074 0.355 0.275 0.355 0.422 0 0.808 0.191 1.037-0.819 1.302l-0.291 0.083v0.917l4.378 0.202v-1.101l-0.4-0.137c-0.16-0.031-0.297-0.117-0.391-0.238l-0.001-0.001c-0.086-0.11-0.137-0.249-0.137-0.401 0-0.014 0-0.027 0.001-0.041l-0 0.002c0-0.431-0.064-0.871 0.482-1.054 0.297-0.121 0.641-0.192 1.001-0.192s0.705 0.070 1.019 0.198l-0.018-0.007c0.182 0.082 0.428 0.294 0.437 0.45 0 0.917 0.192 1.064-0.792 1.366l-0.118 0.055v1.128l4.498 0.21v-1.376c-0.282-0.091-0.556-0.174-0.829-0.274-0.437-0.156-0.346-0.542-0.364-0.918-0.006-0.032-0.010-0.069-0.010-0.107 0-0.252 0.157-0.466 0.378-0.552l0.004-0.001c0.404-0.169 0.873-0.268 1.366-0.268s0.962 0.098 1.39 0.277l-0.024-0.009c0.41 0.165 0.355 0.514 0.364 0.853 0.008 0.038 0.013 0.082 0.013 0.126 0 0.259-0.162 0.481-0.391 0.569l-0.004 0.001-0.792 0.257v1.376c0.354 0 0.691 0.055 1.019 0 0.017-0.002 0.038-0.002 0.058-0.002 0.263 0 0.492 0.144 0.613 0.357l0.002 0.003c0.24 0.366 0.514 0.706 0.819 1.018 0.108 0.098 0.24 0.168 0.382 0.202h4.187c-0.871-3.939-3.102-7.252-6.166-9.497l-0.045-0.031c-2.555-1.872-5.761-2.995-9.229-2.995-0.603 0-1.199 0.034-1.784 0.1l0.072-0.007c-4.027 0.457-7.538 2.37-10.049 5.192l-0.014 0.016c-2.5 2.809-4.028 6.532-4.028 10.611 0 0.014 0 0.029 0 0.043v-0.002 0.082z"></path>
</symbol>
<symbol id="twitter" viewBox="0 0 37 32">
<path  d="M35.58 4.996c-1.221 0.545-2.638 0.945-4.122 1.13l-0.074 0.008c1.511-0.914 2.648-2.316 3.203-3.984l0.015-0.052c-1.435 0.853-3.004 1.454-4.64 1.778-1.336-1.446-3.242-2.348-5.358-2.348-4.026 0-7.289 3.263-7.289 7.289 0 0.606 0.074 1.195 0.213 1.758l-0.011-0.050c-6.073-0.316-11.414-3.206-14.993-7.589l-0.029-0.037c-0.615 1.055-0.978 2.323-0.978 3.675 0 0.002 0 0.003 0 0.005v-0c0 0.004 0 0.009 0 0.014 0 2.512 1.273 4.726 3.21 6.032l0.026 0.016c-1.219-0.034-2.353-0.366-3.343-0.925l0.036 0.019v0.089c0.019 3.507 2.511 6.426 5.82 7.103l0.047 0.008c-0.583 0.184-1.255 0.294-1.951 0.302l-0.004 0c-0.488-0.006-0.961-0.051-1.421-0.132l0.052 0.008c0.966 2.911 3.637 4.986 6.802 5.049l0.007 0c-2.46 1.949-5.609 3.126-9.033 3.126-0.613 0-1.218-0.038-1.811-0.111l0.071 0.007c3.151 2.062 7.011 3.289 11.157 3.289 0.009 0 0.018 0 0.026-0h-0.001c0.064 0.001 0.139 0.001 0.214 0.001 11.38 0 20.604-9.225 20.604-20.604 0-0.057-0-0.113-0.001-0.17l0 0.009v-0.942c1.397-1.049 2.577-2.297 3.521-3.714l0.034-0.055z"></path>
</symbol>
<symbol id="youtube" viewBox="0 0 46 32">
<path  d="M44.018 11.434c0.006-0.175 0.010-0.381 0.010-0.587 0-2.799-0.676-5.44-1.875-7.768l0.045 0.095c-0.859-1.022-2.049-1.742-3.404-1.994l-0.036-0.006c-4.244-0.408-9.176-0.641-14.162-0.641-0.906 0-1.811 0.008-2.713 0.023l0.136-0.002c-0.806-0.015-1.756-0.023-2.708-0.023-4.919 0-9.785 0.226-14.589 0.669l0.617-0.046c-1.143 0.213-2.138 0.738-2.923 1.482l0.003-0.002c-1.8 1.66-2 4.5-2.2 6.9-0.139 1.938-0.218 4.2-0.218 6.48s0.079 4.542 0.234 6.782l-0.017-0.302c0.064 1.45 0.279 2.82 0.63 4.134l-0.030-0.134c0.24 1.010 0.728 1.946 1.42 2.72 0.79 0.783 1.807 1.337 2.944 1.554l0.036 0.006c4.312 0.532 8.656 0.754 13 0.66 7 0.1 13.14 0 20.4-0.56 1.202-0.21 2.249-0.766 3.061-1.561l-0.001 0.001c0.56-0.56 0.978-1.246 1.22-2 0.66-1.958 1.041-4.213 1.041-6.556 0-0.086-0.001-0.171-0.002-0.256l0 0.013c0.080-1.12 0.080-7.88 0.080-9.080zM17.498 21.714v-12.38l11.84 6.22c-3.32 1.84-7.7 3.92-11.84 6.16z"></path>
</symbol>
<symbol id="arrow-up" viewBox="0 0 24 24">
<path d="M6 17.59 7.41 19 12 14.42 16.59 19 18 17.59l-6-6-6 6Z"/><path d="m6 11 1.41 1.41L12 7.83l4.59 4.58L18 11l-6-6-6 6Z"/>
</symbol>
</defs>
</svg>
