<svg xmlns="http://www.w3.org/2000/svg" width="24" height="24" fill="none"><path fill="#fff" d="M22.765 16.78H5.991a1.198 1.198 0 0 1 0-2.397H18.5a3.594 3.594 0 0 0 3.486-2.72l1.977-7.78a1.198 1.198 0 0 0-.216-1.03 1.198 1.198 0 0 0-.982-.456H5.703A3.596 3.596 0 0 0 2.324 0H1.198a1.198 1.198 0 0 0 0 2.397h1.126a1.198 1.198 0 0 1 1.199.911l.071.575 2.073 8.103a3.597 3.597 0 0 0-3.432 3.757 3.6 3.6 0 0 0 3.756 3.434h.215A3.597 3.597 0 0 0 9.586 24a3.593 3.593 0 0 0 3.378-4.823h2.828a3.599 3.599 0 0 0 1.72 4.417 3.593 3.593 0 0 0 5.037-4.417h.216a1.198 1.198 0 1 0 0-2.397ZM21.231 4.794l-1.57 6.281a1.199 1.199 0 0 1-1.197.91H8.124l-1.798-7.19h14.905ZM9.585 21.574a1.198 1.198 0 1 1 0-2.395 1.198 1.198 0 0 1 0 2.396Zm9.586 0a1.198 1.198 0 1 1 0-2.395 1.198 1.198 0 0 1 0 2.396Z"/></svg>