<svg xmlns="http://www.w3.org/2000/svg" width="21" height="20" fill="none"><path fill="#fff" d="M10.014 7.52a2.48 2.48 0 1 0 0 4.96 2.48 2.48 0 0 0 0-4.96Zm9.93-2.45a6.532 6.532 0 0 0-.42-2.26 4 4 0 0 0-2.32-2.32 6.53 6.53 0 0 0-2.26-.42C13.654 0 13.274 0 10.014 0s-3.64 0-4.93.07a6.53 6.53 0 0 0-2.26.42 4 4 0 0 0-2.32 2.32 6.53 6.53 0 0 0-.42 2.26C.014 6.36.014 6.74.014 10s0 3.64.07 4.93a6.86 6.86 0 0 0 .42 2.27c.2.526.51 1.004.91 1.4.398.402.88.713 1.41.91a6.532 6.532 0 0 0 2.26.42c1.29.07 1.67.07 4.93.07s3.64 0 4.93-.07a6.532 6.532 0 0 0 2.26-.42 3.89 3.89 0 0 0 1.41-.91c.4-.396.71-.874.91-1.4a6.603 6.603 0 0 0 .42-2.27c.07-1.29.07-1.67.07-4.93s0-3.64-.07-4.93Zm-2.54 8a5.73 5.73 0 0 1-.39 1.8 3.862 3.862 0 0 1-2.13 2.13 5.73 5.73 0 0 1-1.81.35h-6.12a5.73 5.73 0 0 1-1.81-.35 3.51 3.51 0 0 1-1.31-.86 3.51 3.51 0 0 1-.82-1.27 5.49 5.49 0 0 1-.34-1.81V6.94a5.49 5.49 0 0 1 .34-1.81 3.51 3.51 0 0 1 .86-1.31c.36-.36.793-.64 1.27-.82a5.73 5.73 0 0 1 1.81-.35h6.12a5.73 5.73 0 0 1 1.81.35 3.51 3.51 0 0 1 1.31.86c.362.359.642.792.82 1.27a5.73 5.73 0 0 1 .35 1.81V10c0 2.06.07 2.27.04 3.06v.01Zm-1.6-7.44a2.38 2.38 0 0 0-1.41-1.41 4 4 0 0 0-1.38-.22h-6a4 4 0 0 0-1.38.26 2.38 2.38 0 0 0-1.41 1.36A4.27 4.27 0 0 0 4.014 7v6c.01.471.097.938.26 1.38a2.38 2.38 0 0 0 1.41 1.41 4.27 4.27 0 0 0 1.33.26h6a4 4 0 0 0 1.38-.26 2.382 2.382 0 0 0 1.41-1.41c.167-.441.255-.908.26-1.38V7c0-.472-.088-.94-.26-1.38v.01Zm-5.79 8.19A3.81 3.81 0 0 1 6.204 10a3.82 3.82 0 1 1 3.81 3.82Zm4-6.89a.9.9 0 0 1 0-1.79.9.9 0 0 1 0 1.79Z"/></svg>