<svg xmlns="http://www.w3.org/2000/svg" width="21" height="18" fill="none"><path fill="#fff" d="M20.014 2.81a8.49 8.49 0 0 1-2.36.64 4.13 4.13 0 0 0 1.81-2.27c-.807.48-1.69.818-2.61 1a4.1 4.1 0 0 0-7 3.74 11.64 11.64 0 0 1-8.45-4.29 4.16 4.16 0 0 0-.55 2.07 4.09 4.09 0 0 0 1.82 3.41 4.05 4.05 0 0 1-1.86-.51v.05a4.1 4.1 0 0 0 3.3 4 3.933 3.933 0 0 1-1.1.17 4.896 4.896 0 0 1-.77-.07 4.11 4.11 0 0 0 3.83 2.84 8.22 8.22 0 0 1-6.06 1.7 11.57 11.57 0 0 0 6.29 1.85 11.59 11.59 0 0 0 11.71-11.68v-.53a8.431 8.431 0 0 0 2-2.12Z"/></svg>